<svg width="30" height="27" viewBox="0 0 30 27" fill="none" xmlns="http://www.w3.org/2000/svg">
<path d="M14.2424 2.36547C14.6608 1.96259 15.3392 1.96259 15.7576 2.36547L28.171 14.318C28.5894 14.7209 29.2678 14.7209 29.6862 14.318C30.1046 13.9151 30.1046 13.2619 29.6862 12.859L17.2728 0.906493C16.0176 -0.302166 13.9824 -0.302163 12.7272 0.906494L0.313814 12.859C-0.104605 13.2619 -0.104605 13.9151 0.313814 14.318C0.732233 14.7209 1.41062 14.7209 1.82904 14.318L14.2424 2.36547Z" fill="#D8D8D8"/>
<path d="M15 4.55394L26.6557 15.777C26.6982 15.8179 26.7415 15.8574 26.7857 15.8955V24.4209C26.7857 25.8453 25.5865 27 24.1071 27H19.2857C18.694 27 18.2143 26.5381 18.2143 25.9683V19.7784C18.2143 19.2087 17.7346 18.7468 17.1429 18.7468H12.8571C12.2654 18.7468 11.7857 19.2087 11.7857 19.7784V25.9683C11.7857 26.5381 11.306 27 10.7143 27H5.89286C4.41352 27 3.21429 25.8453 3.21429 24.4209V15.8955C3.25847 15.8574 3.30182 15.8179 3.34427 15.777L15 4.55394Z" fill="#D8D8D8"/>
</svg>
