<svg width="55" height="55" viewBox="0 0 55 55" fill="none" xmlns="http://www.w3.org/2000/svg">
<path d="M52.7082 43.5417C52.7082 44.7572 52.2253 45.923 51.3657 46.7826C50.5062 47.6421 49.3404 48.125 48.1248 48.125H6.87484C5.65926 48.125 4.49347 47.6421 3.63393 46.7826C2.77439 45.923 2.2915 44.7572 2.2915 43.5417V18.3333C2.2915 17.1178 2.77439 15.952 3.63393 15.0924C4.49347 14.2329 5.65926 13.75 6.87484 13.75H16.0415L20.6248 6.875H34.3748L38.9582 13.75H48.1248C49.3404 13.75 50.5062 14.2329 51.3657 15.0924C52.2253 15.952 52.7082 17.1178 52.7082 18.3333V43.5417Z" fill="#CFDAC2"/>
<path d="M27.5002 38.9583C32.5628 38.9583 36.6668 34.8543 36.6668 29.7917C36.6668 24.7291 32.5628 20.625 27.5002 20.625C22.4376 20.625 18.3335 24.7291 18.3335 29.7917C18.3335 34.8543 22.4376 38.9583 27.5002 38.9583Z" fill="#CFDAC2" stroke="#B1C49B" stroke-width="3" stroke-linecap="round" stroke-linejoin="round"/>
</svg>
