<svg width="28" height="28" viewBox="0 0 28 28" fill="none" xmlns="http://www.w3.org/2000/svg">
<circle cx="14" cy="14" r="14" fill="#A2B788"/>
<path d="M11.9961 17.1016C12.0176 14.4375 12.7266 13.5996 14.0156 12.8047C14.9395 12.2031 15.6484 11.5371 15.6484 10.5488C15.6484 9.47461 14.8105 8.76562 13.7793 8.76562C12.7695 8.76562 11.8457 9.43164 11.8027 10.6992H8.75195C8.81641 7.66992 11.0508 6.23047 13.8008 6.23047C16.7871 6.23047 18.9141 7.79883 18.9141 10.4414C18.9141 12.2031 18.0117 13.3418 16.5938 14.1797C15.3906 14.9102 14.8535 15.5977 14.832 17.1016V17.3379H11.9961V17.1016ZM13.4785 22.1934C12.4688 22.1934 11.6523 21.377 11.6738 20.3887C11.6523 19.4004 12.4688 18.6055 13.4785 18.6055C14.4238 18.6055 15.2617 19.4004 15.2617 20.3887C15.2617 21.377 14.4238 22.1934 13.4785 22.1934Z" fill="white"/>
</svg>
